<svg xmlns="http://www.w3.org/2000/svg" viewBox="0 0 24 24" fill="none">
  <rect width="24" height="24" rx="4" fill="#000000"/>
  <!-- Napster's characteristic cat logo -->
  <path d="M12 4c-4.4 0-8 3.6-8 8s3.6 8 8 8 8-3.6 8-8-3.6-8-8-8zm0 14c-3.3 0-6-2.7-6-6s2.7-6 6-6 6 2.7 6 6-2.7 6-6 6z" fill="#FF6B35"/>
  <path d="M10 8c-1.1 0-2 .9-2 2s.9 2 2 2 2-.9 2-2-.9-2-2-2zm4 0c-1.1 0-2 .9-2 2s.9 2 2 2 2-.9 2-2-.9-2-2-2z" fill="#000"/>
  <path d="M8 14c0-2.2 1.8-4 4-4s4 1.8 4 4" stroke="#FF6B35" stroke-width="2" fill="none"/>
</svg>
